HIERARCHY
ROOT Hips
{
  OFFSET 0 0 0
  CHANNELS 6 Xposition Yposition Zposition Zrotation Yrotation Xrotation
  JOINT LeftThigh
  {
    OFFSET 8.409438 0 -5.917753
    CHANNELS 3 Zrotation Yrotation Xrotation
    JOINT LeftLeg
    {
      OFFSET 0 0 -42.358652
      CHANNELS 3 Zrotation Yrotation Xrotation
      JOINT LeftFoot
      {
        OFFSET 0 0 -39.357303
        CHANNELS 3 Zrotation Yrotation Xrotation
      }
    }
  }
  JOINT RightThigh
  {
    OFFSET -8.409438 0 -5.917753
    CHANNELS 3 Zrotation Yrotation Xrotation
    JOINT RightLeg
    {
      OFFSET 0 0 -42.358652
      CHANNELS 3 Zrotation Yrotation Xrotation
      JOINT RightFoot
      {
        OFFSET 0 0 -39.357303
        CHANNELS 3 Zrotation Yrotation Xrotation
      }
    }
  }
  JOINT SpineLow
  {
    OFFSET 0 0 4.719101
    CHANNELS 3 Zrotation Yrotation Xrotation
    JOINT SpineMid
    {
      OFFSET 0 0 12.899191
      CHANNELS 3 Zrotation Yrotation Xrotation
      JOINT Chest
      {
        OFFSET 0 0 12.899191
        CHANNELS 3 Zrotation Yrotation Xrotation
        JOINT LeftShoulder
        {
          OFFSET 7.550562 1.41573 9.438202
          CHANNELS 3 Zrotation Yrotation Xrotation
          JOINT LeftArm
          {
            OFFSET 9.155056 0 4.247191
            CHANNELS 3 Zrotation Yrotation Xrotation
            JOINT LeftForearm
            {
              OFFSET 0 0 25.771955
              CHANNELS 3 Zrotation Yrotation Xrotation
              JOINT LeftHand
              {
                OFFSET 0 0 25.197169
                CHANNELS 3 Zrotation Yrotation Xrotation
              }
            }
          }
        }
        JOINT RightShoulder
        {
          OFFSET -7.550562 1.41573 9.438202
          CHANNELS 3 Zrotation Yrotation Xrotation
          JOINT RightArm
          {
            OFFSET -9.155056 0 4.247191
            CHANNELS 3 Zrotation Yrotation Xrotation
            JOINT RightForearm
            {
              OFFSET 0 0 -25.771955
              CHANNELS 3 Zrotation Yrotation Xrotation
              JOINT RightHand
              {
                OFFSET 0 0 -25.197169
                CHANNELS 3 Zrotation Yrotation Xrotation
              }
            }
          }
        }
        JOINT Neck
        {
          OFFSET 0 0 15.101124
          CHANNELS 3 Zrotation Yrotation Xrotation
          JOINT Head
          {
            OFFSET 0 0 11.325843
            CHANNELS 3 Zrotation Yrotation Xrotation
            End Site
            {
              OFFSET 0 0 14.157303
            }
          }
        }
      }
    }
  }
}
MOTION
Frames: 10
Frame Time: 0.0
0.0  101.685394  0.0  3.509954  11.69706  -98.34451  2.257864  -12.207406  8.590802  -2.713108  7.970389  12.176252  0.829772  2.070886  3.421114  -12.076699  18.11775  4.487575  -2.114418  2.634927  6.368718  1.168538  -0.814999  -2.057886  -1.058955  0.488197  2.483388  -2.841352  1.441187  6.766198  -2.841352  1.441187  6.766199  -7.304939  21.820051  10.978812  146.27415  40.218978  -172.514747  -1.40724  -4.076733  20.003736  80.899988  -3.925038  -3.560105  5.320336  -7.240237  15.310633  65.753708  24.2279  27.002281  -9.0059  20.347229  -38.581884  89.497956  6.272144  -27.719765  -2.113109  -1.074376  -0.603322  -1.585848  -0.803708  -0.4562  
0.0  101.685394  0.0  3.527397  11.776455  -98.35802  2.330274  -12.194983  8.5838  -2.799157  7.908306  12.185589  0.780426  2.061733  3.406042  -11.955176  18.10656  4.612453  -2.221121  2.588963  6.255433  1.140683  -0.835867  -2.045787  -1.090589  0.495149  2.483864  -2.927015  1.46341  6.766487  -2.927015  1.46341  6.766487  -7.40126  22.018743  10.954533  146.334903  40.5576  -172.449141  -1.662285  -4.027  19.588732  81.3316  -3.563318  -3.635872  5.437883  -7.236409  15.206133  65.869821  24.325198  27.020452  -9.190652  20.259552  -38.708408  89.444736  6.375284  -27.821673  -2.08251  -1.064389  -0.561878  -1.562818  -0.796389  -0.425029  
0.0  101.685394  0.0  3.561853  11.840391  -98.370571  2.572793  -12.218674  8.658217  -2.876921  7.85783  12.195381  0.607571  2.023872  3.315631  -11.782249  18.121359  4.735725  -2.250592  2.523003  6.173713  1.001023  -0.860046  -2.050843  -1.091222  0.506969  2.494738  -2.927292  1.496212  6.795704  -2.927292  1.496212  6.795704  -7.487796  22.1911  10.929559  146.466174  40.994267  -172.351486  -1.549425  -3.989632  19.332008  81.661035  -3.007012  -3.281596  5.408443  -7.287611  15.0501  65.83344  24.529176  26.932039  -9.325929  20.205147  -38.796338  89.514818  6.507511  -27.989267  -2.118761  -1.068914  -0.519826  -1.589935  -0.799896  -0.39357  
0.0  101.685394  0.0  3.587487  11.897915  -98.379897  2.656359  -12.24718  8.635761  -2.934182  7.835795  12.194612  0.54145  2.00659  3.306396  -11.608062  18.111418  4.86159  -2.420487  2.478356  6.059145  0.988188  -0.890814  -2.038935  -1.113052  0.515668  2.493513  -2.986046  1.522139  6.791471  -2.986046  1.522139  6.791471  -7.594637  22.331171  10.835777  146.878135  41.3386  -172.125711  -1.361576  -3.968214  19.112301  81.780782  -2.318812  -2.602063  5.540167  -7.329828  14.972289  65.961511  24.731824  26.923991  -9.425228  20.177008  -38.837414  89.532381  6.62488  -28.126556  -2.122733  -1.061502  -0.470883  -1.592823  -0.794503  -0.356844  
0.0  101.685394  0.0  3.62673  11.91978  -98.404891  2.781056  -12.279635  8.673361  -2.862719  7.808619  12.240821  0.377777  1.970341  3.238467  -11.300746  18.100353  5.039648  -2.635311  2.431505  5.945904  0.913583  -0.9212  -2.033824  -1.100007  0.526825  2.504848  -2.949015  1.551754  6.822306  -2.949015  1.551754  6.822306  -7.70562  22.442788  10.737267  147.267149  41.731103  -171.868834  -1.111078  -3.947297  19.029857  81.922701  -1.646355  -1.605369  5.512315  -7.390673  14.839625  65.864967  25.035594  26.762882  -9.538593  20.141496  -38.879987  89.62577  6.776478  -28.321716  -2.184065  -1.071126  -0.412412  -1.638724  -0.801884  -0.313133  
0.0  101.685394  0.0  3.660676  11.973719  -98.414021  2.806563  -12.322902  8.68486  -2.84446  7.810132  12.202649  0.301378  1.945865  3.231327  -11.127607  18.077859  5.163359  -2.824012  2.401624  5.828385  0.916934  -0.948456  -2.022178  -1.11084  0.536211  2.50307  -2.977686  1.578408  6.816785  -2.977686  1.578408  6.816785  -7.833692  22.50833  10.622785  147.841757  42.054867  -171.540057  -0.965056  -3.894906  19.002974  82.132409  -1.006049  -0.402665  5.62371  -7.438052  14.758327  65.991529  25.282777  26.72263  -9.629856  20.09849  -38.928544  89.615711  6.851171  -28.415787  -2.233865  -1.066807  -0.345723  -1.675955  -0.798855  -0.263189  
0.0  101.685394  0.0  3.690055  11.989535  -98.436366  2.797485  -12.355272  8.685731  -2.713873  7.792233  12.228058  0.188289  1.911308  3.197596  -10.829968  18.035108  5.337882  -3.068163  2.360144  5.700341  0.875291  -0.966426  -2.007854  -1.090051  0.54592  2.510715  -2.919737  1.603104  6.837804  -2.919737  1.603104  6.837803  -8.129034  22.512261  10.464235  148.268861  42.435354  -171.293256  -0.823055  -3.826468  19.073044  82.40994  -0.450221  0.941428  5.568245  -7.52346  14.61013  65.981122  25.588933  26.616102  -9.679944  20.063716  -39.007083  89.611783  6.929323  -28.497722  -2.309572  -1.080203  -0.254878  -1.732578  -0.809203  -0.195239  
0.0  101.685394  0.0  3.715903  12.045759  -98.43652  2.786706  -12.382373  8.704585  -2.660861  7.770378  12.167917  0.11008  1.883988  3.193239  -10.688891  18.000345  5.447491  -3.215646  2.328255  5.576592  0.866349  -0.991169  -1.994555  -1.095308  0.552576  2.504202  -2.933582  1.621529  6.819596  -2.933582  1.621529  6.819596  -8.272117  22.542146  10.350676  148.621565  42.725891  -171.081177  -0.651226  -3.836609  19.115936  82.808239  -0.022943  2.30306  5.676762  -7.609033  14.534529  66.11853  25.88365  26.601059  -9.711653  20.067471  -39.043828  89.573898  6.963295  -28.490186  -2.376556  -1.064503  -0.159596  -1.782644  -0.797771  -0.123835  
0.0  101.685394  0.0  3.747148  12.085024  -98.454451  2.753008  -12.387368  8.717058  -2.584108  7.719194  12.124021  0.030565  1.864587  3.191199  -10.430647  17.964788  5.6153  -3.389058  2.282807  5.449142  0.801688  -1.010978  -1.989921  -1.080958  0.562896  2.502636  -2.893389  1.648155  6.815265  -2.893388  1.648155  6.815266  -8.539396  22.496075  10.236051  148.855701  42.986089  -170.897793  -0.322558  -3.892448  19.182833  83.123911  0.305875  3.553316  5.731688  -7.773274  14.464035  66.037565  26.283037  26.523223  -9.531771  20.142826  -39.071665  89.52051  6.986529  -28.393878  -2.428749  -1.066783  -0.021592  -1.821547  -0.800016  -0.020433  
0.0  101.685394  0.0  3.770448  12.140699  -98.459017  2.668127  -12.375738  8.723631  -2.498097  7.668374  12.075227  -0.012018  1.839627  3.197226  -10.318274  17.929319  5.727355  -3.503583  2.248804  5.313862  0.787812  -1.036559  -1.97466  -1.08281  0.567435  2.49282  -2.898242  1.660312  6.788202  -2.898242  1.660312  6.788202  -8.738449  22.518688  10.167174  148.911341  43.280429  -170.828473  0.012297  -3.988845  19.18059  83.375418  0.40944  4.67574  5.879315  -7.910149  14.443919  66.216006  26.639092  26.577264  -9.497254  20.241448  -39.084118  89.508527  6.993277  -28.221515  -2.498542  -1.036038  0.092596  -1.873698  -0.777423  0.065211  
